<!-- SVG-LIBRARY -->
<!-- 
	svg-avatar
	svg-home
	svg-park
	svg-users
	svg-user
	svg-graph
	svg-logout
	svg-news
	svg-books
	svg-get
 -->
<svg version="1.1" xmlns="http://www.w3.org/2000/svg">
	<symbol id="svg-users" viewBox="0 0 210.414 210.414">
		<path d="M105.207,0C47.196,0,0,47.196,0,105.207c0,58.011,47.196,105.207,105.207,105.207
			c58.011,0,105.207-47.196,105.207-105.207C210.414,47.196,163.218,0,105.207,0z M38.868,176.451
			c0.022-0.166,0.098-0.313,0.098-0.485c0-13.786,11.956-20.012,23.889-20.103c2.696,0.37,22.152,3.005,36.137,3.716l-5.063,10.127
			c-0.381,0.761-0.502,1.625-0.343,2.462l5.673,30.254C75.994,201.013,54.916,191.404,38.868,176.451z M73.818,72.891
			c-0.27-1.541-0.407-3.124-0.407-4.703c0-16.115,14.197-29.224,31.652-29.224c17.451,0,31.648,13.109,31.648,29.224
			c0,1.575-0.137,3.162-0.407,4.715c-0.099,0.563-0.069,1.142,0.08,1.693c1.416,5.171,2.138,10.617,2.15,16.187
			c0.004,2.123,1.914,3.87,4.037,3.904c0.883,0.125,1.476,0.913,1.351,1.796l-1.663,11.823c-0.08,0.571-0.422,0.906-0.616,1.05
			c-0.194,0.152-0.601,0.381-1.191,0.3c-0.129-0.015-0.255-0.049-0.381-0.103c-0.982-0.403-2.082-0.392-3.056,0.03
			c-0.97,0.426-1.728,1.229-2.093,2.222c-2.237,6.073-5.487,11.503-9.395,15.704c-0.674,0.723-1.047,1.67-1.047,2.656v20.556
			c-6.98,0.687-14.199,1.24-19.371,1.24c-5.211,0-12.472-0.562-19.468-1.257v-20.54c-0.001-0.98-0.374-1.928-1.043-2.651
			c-3.931-4.224-7.192-9.684-9.425-15.788c-0.365-0.997-1.313-1.75-2.287-2.177c-0.963-0.426-2.264-0.392-3.246,0.015
			c-0.556,0.091-0.948-0.152-1.138-0.293c-0.19-0.145-0.521-0.468-0.597-1.024L66.257,96.53c-0.08-0.556,0.148-0.959,0.293-1.149
			c0.171-0.228,0.487-0.521,1.21-0.609c2.123-0.038,3.828-1.769,3.828-3.893c0.004-5.597,0.727-11.073,2.154-16.283
			C73.894,74.04,73.921,73.458,73.818,72.891z M106.181,197.07l-4.696-25.051l4.696-9.391l4.696,9.391L106.181,197.07z
			 M113.132,202.27l5.644-30.103c0.16-0.837,0.038-1.701-0.342-2.462l-5.122-10.243c13.805-0.845,31.665-3.247,34.243-3.6
			c12.12,0.125,22.295,8.927,23.726,20.578c0.009,0.073,0.051,0.131,0.064,0.202C155.78,191.063,135.515,200.458,113.132,202.27z
			 M177.825,170.048c-4.043-12.845-16.303-21.979-30.528-21.979c-0.179,0-0.358,0.011-0.533,0.038
			c-0.133,0.018-6.453,0.885-14.49,1.792v-18.234c3.501-4.03,6.492-8.87,8.782-14.197c1.899-0.069,3.729-0.715,5.278-1.887
			c2.002-1.507,3.291-3.706,3.642-6.187l1.663-11.819c0.59-4.193-1.705-8.143-5.381-9.836c-0.217-4.912-0.932-9.73-2.135-14.369
			c0.251-1.713,0.381-3.451,0.381-5.179c0-20.411-17.694-37.017-39.441-37.017c-21.751,0-39.445,16.606-39.445,37.017
			c0,1.735,0.129,3.474,0.384,5.183c-1.214,4.673-1.929,9.521-2.142,14.464c-1.389,0.639-2.603,1.614-3.547,2.869
			c-1.492,1.99-2.119,4.444-1.773,6.914l1.648,11.713c0.346,2.474,1.632,4.661,3.623,6.161c1.534,1.157,3.341,1.8,5.217,1.876
			c2.291,5.362,5.297,10.24,8.821,14.293v18.214c-7.893-0.899-14.063-1.75-14.194-1.768c-0.175-0.027-0.358-0.038-0.537-0.038
			c-16.15,0-28.091,8.472-31.151,21.26C16.936,152.184,7.794,129.751,7.794,105.21c0-53.715,43.699-97.414,97.414-97.414
			c53.715,0,97.414,43.699,97.414,97.414C202.621,130.089,193.231,152.812,177.825,170.048z" />
	</symbol>
	<symbol id="svg-avatar" viewBox="0 0 676 676">
		<path d="M938,450a336.852,336.852,0,0,1-27.22,133.1L909.66,585.68A338.559,338.559,0,0,1,541.35,782.93q-3.045-.54-6.08-1.12a334.98111,334.98111,0,0,1-61.14-18.03q-4.815-1.935-9.56-4.01c-2.16-.94-4.32-1.91-6.46-2.91A338.41424,338.41424,0,0,1,262,450c0-186.67,151.33-338,338-338S938,263.33,938,450Z" transform="translate(-262 -112)" fill="#3f50b5" />
		<path d="M541.35,782.93q-3.045-.54-6.08-1.12c-1.32-38.31-5.85-116.94-21.30005-199.29C505.52,537.45,493.79,491.25,477.52,449.95a412.60387,412.60387,0,0,0-19.07-41.84c-16.44-31.05-36.38-57.19-60.56-74.9l3.56-4.86q30.165,22.11,54.22,62.08,7.215,11.97,13.86005,25.54,7.125,14.52,13.59,30.83,4.125,10.38,7.97,21.48,16.74,48.195,28.46,109.98,2.59506,13.65,4.94,27.97C536.6,680.2,540.25,748.59,541.35,782.93Z" transform="translate(-262 -112)" opacity="0.2" />
		<path d="M464.57,759.77c-2.16-.94-4.32-1.91-6.46-2.91-2.09-22.7-5.93-50.86-12.95-77.59A254.55666,254.55666,0,0,0,433.35,644.07c-8.01-18.75-18.38-34.69-31.79-44.52l3.56-4.85c14.04,10.28,24.87,26.53,33.24,45.54,9.43,21.42,15.72,46.35,19.91,70.17C461.38,728.1,463.34,745.19,464.57,759.77Z" transform="translate(-262 -112)" opacity="0.2" />
		<circle cx="102.26174" cy="190.98167" r="30.08857" opacity="0.2" />
		<circle cx="111.9514" cy="449.99083" r="30.08857" opacity="0.2" />
		<path d="M483.71449,353.52139c-6.38046,35.99732,7.70456,68.59225,7.70456,68.59225s24.42979-25.76825,30.81025-61.76557-7.70457-68.59225-7.70457-68.59225S490.09494,317.52407,483.71449,353.52139Z" transform="translate(-262 -112)" opacity="0.2" />
		<path d="M383.71766,438.97122c34.33494,12.555,68.83676,4.498,68.83676,4.498s-21.16612-28.41279-55.50106-40.96784-68.83675-4.498-68.83675-4.498S349.38272,426.41617,383.71766,438.97122Z" transform="translate(-262 -112)" opacity="0.2" />
		<path d="M377.89534,668.333c24.066,8.80008,48.28314,3.0594,48.28314,3.0594S411.37687,651.384,387.31086,642.5839s-48.28314-3.0594-48.28314-3.0594S353.82933,659.53292,377.89534,668.333Z" transform="translate(-262 -112)" opacity="0.2" />
		<circle cx="337.30608" cy="281.0788" r="131.77014" fill="#d0cde1" />
		<path d="M547.83337,493.96531s16.47127,78.23852,16.47127,86.47415,78.23852,45.296,78.23852,45.296L712.546,613.382,737.253,539.26129s-41.17817-61.76725-41.17817-86.47415Z" transform="translate(-262 -112)" fill="#d0cde1" />
		<path d="M910.78,583.1,909.66,585.68A338.559,338.559,0,0,1,541.35,782.93q-3.045-.54-6.08-1.12a334.98111,334.98111,0,0,1-61.14-18.03q-4.815-1.935-9.56-4.01c-2.16-.94-4.32-1.91-6.46-2.91a337.59273,337.59273,0,0,1-55.25-32.28l-15.62-45.31,8.78-6.69995,18.06-13.79,19.27-14.71,5.01-3.83,75.61-57.72,5.58-4.26,39.3-30,.01-.01s42.5,69.25,104.27,48.66,60.42-79.63,60.42-79.63Z" transform="translate(-262 -112)" fill="#2f2e41" />
		<path d="M485.03538,286.916s41.83653-90.64581,122.02321-69.72755,125.50958,52.29566,128.996,83.67306-1.74319,78.44348-1.74319,78.44348-8.716-64.498-64.498-50.55247-142.94147,3.48638-142.94147,3.48638L512.9264,457.74849s-15.6887-22.66145-33.12058-8.71594S429.25335,314.807,485.03538,286.916Z" transform="translate(-262 -112)" fill="#2f2e41" />
		<path d="M474.13,763.78q-4.815-1.935-9.56-4.01c-2.16-.94-4.32-1.91-6.46-2.91a338.835,338.835,0,0,1-87.59-58.7c9.19-12.52,16.72-18.89,16.72-18.89h61.77l9.26,31.14Z" transform="translate(-262 -112)" fill="#2f2e41" />
		<path d="M856.67,576.32l52.99,9.36A337.94434,337.94434,0,0,1,852.9,674.25Z" transform="translate(-262 -112)" fill="#2f2e41" />
	</symbol>
	<symbol id="svg-park" viewBox="0 0 1021.17474 798.75165">
		<path d="M214.78928,711.51922c-1.36408-2.0203-2.705-4.094-3.986-6.16422l2.069-1.28035c1.26372,2.044,2.58683,4.09047,3.93251,6.08345Z" transform="translate(-89.41263 -50.62418)" fill="#3f3d56" />
		<path d="M203.46921,692.31869c-2.25605-4.42779-4.353-9.00166-6.23191-13.59513l2.25071-.92167c1.85461,4.53171,3.923,9.04442,6.14878,13.41223Zm-11.31532-27.66c-1.49235-4.7354-2.80418-9.59314-3.89984-14.43722l2.373-.53684c1.08023,4.77934,2.37424,9.57116,3.8464,14.24243Zm-6.58941-29.14761c-.68947-4.90881-1.18356-9.91441-1.4698-14.879l2.42887-.14015c.28149,4.89871.76964,9.8378,1.4496,14.6807Zm.70847-29.77353-2.43125-.057c.117-4.97175.44-9.991.95967-14.91764l2.41937.25536C186.70765,595.87955,186.38875,600.83171,186.273,605.73755Zm3.09814-29.31091-2.38968-.45371c.92642-4.87793,2.0684-9.77664,3.39448-14.56014l2.34454.64967C191.41158,566.78183,190.285,571.61463,189.37109,576.42664Zm7.87808-28.40173-2.28159-.84208c1.71981-4.65939,3.65756-9.30572,5.75921-13.80952l2.20439,1.02856C200.85744,538.8451,198.94582,543.42847,197.24917,548.02491Zm333.1267-7.5188c-1.90152-4.50914-4.01743-8.9981-6.28952-13.34274l2.1557-1.12714c2.303,4.404,4.448,8.95415,6.375,13.52446ZM209.71954,521.29667,207.60779,520.09c2.46331-4.309,5.13863-8.57112,7.95172-12.66872l2.00486,1.37656C214.78928,512.84077,212.1496,517.04586,209.71954,521.29667Zm306.99707-6.91247c-2.6195-4.13739-5.44447-8.21837-8.39652-12.1289l1.9419-1.46564c2.99185,3.964,5.85482,8.10019,8.50936,12.2934ZM226.40984,496.98661l-1.88608-1.5369c3.13793-3.85,6.473-7.61619,9.91441-11.19536l1.75307,1.68537C232.79616,489.47137,229.505,493.18772,226.40984,496.98661Zm272.54752-6.13215c-3.26264-3.657-6.7165-7.22247-10.266-10.59794l1.67645-1.76256c3.597,3.4212,7.09776,7.03481,10.40434,10.74046ZM246.84322,475.73134l-1.60935-1.82313c3.72169-3.28521,7.62629-6.457,11.60512-9.42686l1.45495,1.949C254.368,469.36106,250.51562,472.49008,246.84322,475.73134Zm230.7496-5.19683c-3.81552-3.075-7.80563-6.02941-11.85869-8.78015L467.1,459.74119c4.10829,2.78875,8.15185,5.78237,12.019,8.89893Zm-207.12723-12.433-1.28985-2.06187c4.21162-2.63434,8.58121-5.12319,12.98821-7.39765l1.11526,2.16163C278.9316,453.04726,274.6208,455.50285,270.46559,458.10156Zm182.72869-4.12373c-4.27338-2.41165-8.694-4.67127-13.139-6.71591l1.01668-2.21033c4.50558,2.07315,8.98622,4.36365,13.3178,6.80736Zm-156.545-9.38885-.93354-2.246c4.584-1.9039,9.30215-3.63856,14.02389-5.15526l.74351,2.316C305.82552,440.99971,301.17088,442.71061,296.64927,444.589Zm129.7562-2.93424c-4.60357-1.67111-9.3366-3.17-14.06725-4.45451l.6378-2.34692c4.79479,1.30173,9.59255,2.82081,14.25966,4.51508Zm-101.70426-6.07455-.54872-2.36948c4.83042-1.12,9.77367-2.05177,14.69139-2.77034l.35156,2.4069C334.34364,433.55633,329.46749,434.47562,324.70121,435.58019Zm73.24909-1.6521c-4.80786-.886-9.722-1.58322-14.60588-2.07137l.2423-2.42056c4.94978.49528,9.931,1.20137,14.80422,2.09988Zm-44.08485-2.61-.15322-2.42768c4.94741-.31237,9.99162-.42342,14.94853-.33375l-.04395,2.43244C363.72166,430.89942,358.74812,431.01047,353.86545,431.31809Z" transform="translate(-89.41263 -50.62418)" fill="#3f3d56" />
		<path d="M537.70167,561.436c-.65146-2.31485-1.35933-4.64811-2.10462-6.93505l2.31247-.75419c.75538,2.31841,1.47336,4.68373,2.13313,7.03006Z" transform="translate(-89.41263 -50.62418)" fill="#3f3d56" />
		<path d="M583.68032,483.597h-2.43243c0-2.43422.04276-4.90406.12768-7.34006l2.43125.08433C583.72308,478.74991,583.68032,481.19065,583.68032,483.597Z" transform="translate(-89.41263 -50.62418)" fill="#3f3d56" />
		<path d="M584.83775,461.71458l-2.41937-.25774c.52141-4.89871,1.22631-9.83721,2.09572-14.67832l2.39442.42995C586.04921,451.99257,585.35262,456.87347,584.83775,461.71458Zm5.17842-28.82574-2.35642-.601c1.2174-4.774,2.62484-9.56048,4.18193-14.227l2.30772.76963C592.61013,423.44238,591.21991,428.17185,590.01617,432.88884ZM977.94383,407.226c-1.81838-4.5139-3.82442-9.0177-5.9623-13.38491l2.18538-1.06894c2.16283,4.41947,4.19262,8.97672,6.03357,13.54525Zm-378.65342-2.132-2.246-.93472c1.89143-4.54537,3.97408-9.083,6.19154-13.48705l2.17232,1.09388C603.21757,396.11851,601.15927,400.60211,599.29041,405.094Zm365.781-24.17644c-2.4455-4.20331-5.07509-8.374-7.81752-12.39554l2.00961-1.37062c2.77568,4.06969,5.43615,8.28963,7.91015,12.54282Zm-352.60278-2.00307-2.08859-1.2471c2.52092-4.2235,5.23186-8.41493,8.05624-12.4573l1.99417,1.39318C617.63875,370.59817,614.95987,374.74031,612.46865,378.91452Zm336.10072-22.19831c-3.02509-3.8179-6.22241-7.57166-9.50406-11.15736l1.79345-1.6426c3.32084,3.62845,6.55735,7.42616,9.61808,11.28919Zm-319.31837-1.822-1.88965-1.53215c3.1029-3.8268,6.38157-7.58828,9.74576-11.17992l1.77563,1.6628C635.55774,347.39505,632.31707,351.11259,629.251,354.89426Zm299.53943-19.78785c-3.53581-3.34816-7.23435-6.60961-10.99464-9.69469l1.54165-1.88015c3.80543,3.12071,7.5479,6.42136,11.12529,9.80871Zm-279.51463-1.5951-1.65329-1.78513c3.61183-3.344,7.39053-6.6013,11.23218-9.68043l1.52145,1.898C656.57963,326.98722,652.84487,330.20591,649.2758,333.51131Zm256.86261-16.986c-3.97408-2.81131-8.099-5.51336-12.26192-8.0313l1.259-2.08087c4.21162,2.54764,8.38643,5.28175,12.40683,8.12631ZM672.128,315.19265l-1.3825-2.00129c4.0495-2.79587,8.25222-5.48069,12.49234-7.98082l1.23522,2.09512C680.28277,309.77669,676.12934,312.43,672.128,315.19265Zm208.94264-13.83029c-4.33633-2.21508-8.80568-4.29833-13.28573-6.19332l.94779-2.24c4.5335,1.917,9.0563,4.02574,13.44489,6.267Zm-183.721-1.03747-1.082-2.17826c4.40641-2.18776,8.94821-4.24309,13.50011-6.10839l.92286,2.25071C706.19208,296.13227,701.70372,298.16326,697.34958,300.32489ZM854.087,289.94965c-4.6012-1.56659-9.32472-2.98591-14.03874-4.21816l.61523-2.35285c4.771,1.2465,9.55157,2.683,14.20739,4.268Zm-129.66-.71976-.75776-2.31128c4.67483-1.53215,9.46843-2.914,14.24837-4.1071l.58911,2.36C733.78319,286.35029,729.046,287.71556,724.427,289.22989Zm101.31766-6.69037c-4.78291-.88781-9.65965-1.61291-14.49482-2.15569l.27079-2.417c4.89337.54932,9.82831,1.28273,14.66823,2.18064Zm-72.90227-.40026-.41689-2.3968c4.84586-.84387,9.78733-1.52264,14.689-2.01851l.24467,2.42055C762.51569,280.63384,757.63123,281.3049,752.84239,282.13926Zm43.795-2.87069c-4.8708-.19776-9.82236-.22389-14.65635-.07958l-.07363-2.43124c4.89218-.14609,9.90075-.12056,14.82975.08076Z" transform="translate(-89.41263 -50.62418)" fill="#3f3d56" />
		<path d="M985.05941,428.09821c-.65087-2.31485-1.354-4.65167-2.088-6.94692l2.316-.74113c.74351,2.322,1.45494,4.6867,2.11412,7.02887Z" transform="translate(-89.41263 -50.62418)" fill="#3f3d56" />
		<polygon points="388.023 487.496 638.091 628.492 342.797 798.752 95.389 652.435 388.023 487.496" fill="#3f3d56" />
		<polygon points="771.106 277.332 1021.175 418.328 725.881 588.588 478.473 442.271 771.106 277.332" fill="#3f3d56" />
		<polygon points="388.023 474.195 638.091 615.191 342.797 785.45 95.389 639.133 388.023 474.195" fill="#d0cde1" />
		<polygon points="771.106 264.031 1021.175 405.027 725.881 575.286 478.473 428.97 771.106 264.031" fill="#d0cde1" />
		<path d="M918.65033,274.91823a76.72352,76.72352,0,0,0-30.0398-122.74448,54.46033,54.46033,0,1,0-54.54514,0A76.72038,76.72038,0,0,0,803.91371,274.789a106.44543,106.44543,0,1,0,114.73662.12925Z" transform="translate(-89.41263 -50.62418)" fill="#3f3d56" />
		<path d="M542.64953,518.00005c0,56.129-33.36324,75.72576-74.5254,75.72576-.95344,0-1.90684-.01373-2.85341-.03433-1.90689-.04115-3.8-.13028-5.66572-.26061-37.1495-2.62709-66.00622-23.2322-66.00622-75.43082,0-54.00946,69.01742-122.16948,74.21668-127.22472a.00672.00672,0,0,1,.00686-.00686c.199-.19891.30181-.29495.30181-.29495S542.64953,461.87794,542.64953,518.00005Z" transform="translate(-89.41263 -50.62418)" fill="#d0cde1" />
		<path d="M465.40791,585.13806l27.25852-38.08238-27.32714,42.26649-.06857,4.36931c-1.90689-.04115-3.8-.13028-5.66572-.26061l2.93572-56.14957-.02056-.439.048-.07548.28121-5.309-27.39567-42.36939,27.478,38.39105.06862,1.12493,2.21551-42.42428L441.76417,442.3978l23.73974,36.34011,2.31155-87.96258.00686-.30181v.29495l-.38411,69.36038,23.3488-27.49861-23.44484,33.473-.6173,37.98635,21.80543-36.45675-21.89461,42.047-.343,21.11955,31.64157-50.7445-31.765,58.11129Z" transform="translate(-89.41263 -50.62418)" fill="#3f3d56" />
		<path d="M313.86345,619.09157c0,56.129-33.36323,75.72576-74.52539,75.72576-.95344,0-1.90684-.01373-2.85342-.03433-1.90688-.04115-3.8-.13028-5.66572-.26061-37.14949-2.62709-66.00622-23.2322-66.00622-75.43082,0-54.00945,69.01743-122.16948,74.21668-127.22472a.00673.00673,0,0,1,.00687-.00686c.19894-.19891.30181-.29494.30181-.29494S313.86345,562.96947,313.86345,619.09157Z" transform="translate(-89.41263 -50.62418)" fill="#d0cde1" />
		<path d="M236.62183,686.22958l27.25852-38.08238-27.32713,42.26649-.06858,4.36931c-1.90688-.04115-3.8-.13028-5.66572-.26061l2.93573-56.14957-.02056-.439.048-.07548.28121-5.309L206.66765,590.18l27.478,38.39106.06861,1.12492,2.21552-42.42428L212.9781,543.48932l23.73973,36.34011,2.31155-87.96258.00687-.3018V491.86l-.38411,69.36038,23.34879-27.49861-23.44483,33.473-.61731,37.98634,21.80543-36.45675-21.8946,42.047-.343,21.11955,31.64156-50.7445-31.765,58.1113Z" transform="translate(-89.41263 -50.62418)" fill="#3f3d56" />
		<path d="M684.89878,447.21854a37.94766,37.94766,0,1,0,37.94765,37.94765A37.94765,37.94765,0,0,0,684.89878,447.21854Zm2.31388,41.18709a7.40442,7.40442,0,1,1,7.40442-7.40442A7.40443,7.40443,0,0,1,687.21266,488.40563Z" transform="translate(-89.41263 -50.62418)" fill="#f2f2f2" />
		<path d="M725.12847,420.282c-.83707.91152-16.23688,15.56328-16.23688,15.56328s1.53034,10.22645,18.00718,11.49554l27.4614,2.11516s5.19056,19.04838,11.362,25.13573,3.33927,6.42692,5.65532,9.39388-.93464,3.7623,2.58116,4.05053,10.77979-3.96257,10.85875-7.25049a7.6701,7.6701,0,0,0-2.88351-6.00839c-.91152-.83707-3.22308-8.84055-4.609-10.5333s-6.63232-22.05257-6.63232-22.05257-5.23678-9.84965-12.49627-10.63537S742.86,427.2393,742.86,427.2393" transform="translate(-89.41263 -50.62418)" fill="#2f2e41" />
		<path d="M725.12847,420.282c-.83707.91152-16.23688,15.56328-16.23688,15.56328s1.53034,10.22645,18.00718,11.49554l27.4614,2.11516s5.19056,19.04838,11.362,25.13573,3.33927,6.42692,5.65532,9.39388-.93464,3.7623,2.58116,4.05053,10.77979-3.96257,10.85875-7.25049a7.6701,7.6701,0,0,0-2.88351-6.00839c-.91152-.83707-3.22308-8.84055-4.609-10.5333s-6.63232-22.05257-6.63232-22.05257-5.23678-9.84965-12.49627-10.63537S742.86,427.2393,742.86,427.2393" transform="translate(-89.41263 -50.62418)" opacity="0.1" />
		<path d="M751.76636,361.19987s5.77919-15.70318,9.73483-10.69968-6.36487,13.22-6.36487,13.22Z" transform="translate(-89.41263 -50.62418)" fill="#a0616a" />
		<path d="M721.32316,369.39717l3.2904-1.39226s5.9738,6.26844,8.34617,7.43447,8.85327,3.98828,9.71475,4.452,10.61608-16.79412,8.28334-19.27219c0,0,4.36623,1.57412,6.3541.97756,0,0-4.96232,24.05872-5.71743,27.319s-2.5177,3.64477-5.80439,3.76435-23.246-5.73631-23.246-5.73631Z" transform="translate(-89.41263 -50.62418)" fill="#575a89" />
		<path d="M772.09251,485.97548s1.01686,3.26254.56363,3.78522-1.78,9.44478,3.67121,8.86068,8.07265-2.34,9.45281-2.24206,21.86187-7.04855,20.845-10.31109-11.25771.31071-11.25771.31071-11.63346-2.21277-14.36529-4.76475S772.09251,485.97548,772.09251,485.97548Z" transform="translate(-89.41263 -50.62418)" fill="#2f2e41" />
		<path d="M772.09251,485.97548s1.01686,3.26254.56363,3.78522-1.78,9.44478,3.67121,8.86068,8.07265-2.34,9.45281-2.24206,21.86187-7.04855,20.845-10.31109-11.25771.31071-11.25771.31071-11.63346-2.21277-14.36529-4.76475S772.09251,485.97548,772.09251,485.97548Z" transform="translate(-89.41263 -50.62418)" opacity="0.1" />
		<path d="M761.64968,490.77624s3.288,14.326,5.70005,14.18,19.43981-8.43286,21.53493-10.07418c2.69013-2.10746,2.58376-5.8315-.50408-5.04929s-11.82153.08062-13.306-1.49633l-3.8172-4.055Z" transform="translate(-89.41263 -50.62418)" fill="#2f2e41" />
		<path d="M727.94024,411.18278c-.90111.84827-28.30583,24.09633-28.30583,24.09633s2.24327,15.02925,18.58426,17.49275,25.7746-.61277,25.7746-.61277,3.79213,19.37531,9.50471,25.89518,2.86324,6.65266,4.95748,9.78014-1.20566,3.6844,2.27989,4.22744,11.03933-3.16846,11.35709-6.44194a7.67014,7.67014,0,0,0-2.43911-6.20211c-.84826-.90111-2.57189-9.05145-3.83108-10.84047s-5.01168-22.47636-5.01168-22.47636-4.50692-10.20427-11.69009-11.51564-14.98192-5.42014-14.98192-5.42014" transform="translate(-89.41263 -50.62418)" fill="#2f2e41" />
		<circle cx="613.30152" cy="297.1991" r="12.99442" fill="#a0616a" />
		<path d="M695.90294,355.93465s1.94891,7.93828-1.01935,12.00718,19.853,2.13185,19.853,2.13185-6.177-12.88119-3.89782-15.87654S695.90294,355.93465,695.90294,355.93465Z" transform="translate(-89.41263 -50.62418)" fill="#a0616a" />
		<path d="M725.07363,368.41611c2.75686,2.92862,1.81746,19.53453,1.81746,19.53453l-1.76124,14.8301s2.10746,2.69013,1.41841,3.76368-1.81544,2.13388.35807,2.63728,7.18317,1.31136,5.57979,3.67052a22.74341,22.74341,0,0,1-1.67961,1.91252c-.511.54054-1.11868,1.16781-1.80741,1.86713-1.6119,1.62785-3.66193,3.62988-5.93633,5.74115q-.96628.90323-1.98111,1.82244c-8.67685,7.8493-19.46656,16.15785-21.699,12.17041-3.73793-6.67909-6.33558-7.633-6.16382-13.31854s-4.6404-20.27642-4.6404-20.27642-5.595-24.90158,2.28973-32.32392l1.23272-1.972a5.15087,5.15087,0,0,1,5.57353-2.28078c3.84845.91951,9.74809,2.18989,12.30414,1.98477,3.94932-.31844,3.08351-1.94237,3.08351-1.94237S722.31676,365.48749,725.07363,368.41611Z" transform="translate(-89.41263 -50.62418)" fill="#575a89" />
		<path d="M737.258,421.53239s16.07608,3.9876,13.7176,9.607-16.27494-4.65023-16.27494-4.65023Z" transform="translate(-89.41263 -50.62418)" fill="#a0616a" />
		<path d="M695.52259,352.57732c.32-.38765.00352-.95395-.27506-1.37236-1.49186-2.2406-1.77675-5.42883-.13539-7.56235a7.2,7.2,0,0,1,2.37336-1.89884,11.49531,11.49531,0,0,1,4.142-1.27131,6.41234,6.41234,0,0,0,2.25061-.44333c.4532-.23,2.59157-.97883,3.05055-1.197,1.00911-.47968,2.413-.27238,3.05945-1.18367.6185-.87183.04093-2.066-.56-2.95008-1.369-2.01406-4.83072-3.68329-7.20791-4.21194a8.493,8.493,0,0,0-5.35836.95059,32.71342,32.71342,0,0,0-5.45809,3.41473,20.41967,20.41967,0,0,0-6.04692,6.20174c-1.40451,2.54912-1.743,5.86924-.15631,8.30915.33052.50825.73469.96705,1.04416,1.48839.755,1.2718.89118,2.80993,1.42459,4.18939a7.75421,7.75421,0,0,0,4.481,4.415c1.62518.60088,3.624.76688,4.58411,2.20924l.448-3.00729a1.734,1.734,0,0,0-.81083-2.024l-2.30184-1.93888a2.63033,2.63033,0,0,1-.99511-1.283C692.5768,351.3344,694.98906,353.22366,695.52259,352.57732Z" transform="translate(-89.41263 -50.62418)" fill="#2f2e41" />
		<path d="M718.57035,409.80536l10.42875,6.82651c-2.068,2.09124-4.86158,4.79742-7.91744,7.56359-2.8946-1.55824-5.84656-3.2452-8.48746-4.94026-9.66191-6.20143-17.9464-21.77275-21.6579-29.32652s-.6904-13.37206-.6904-13.37206a28.21505,28.21505,0,0,1,7.72621-2.17419C702.80933,373.65307,718.57035,409.80536,718.57035,409.80536Z" transform="translate(-89.41263 -50.62418)" opacity="0.1" />
		<path d="M719.94844,407.65827l10.85807,7.10647c-.511.54054-1.11868,1.16781-1.80741,1.86713-1.6119,1.62785-3.66193,3.62988-5.93633,5.74115-3.08445-1.6472-6.26709-3.4527-9.09048-5.26491-9.6619-6.20143-17.94639-21.77275-21.65789-29.32652s6.27477-4.84451,6.27477-4.84451-5.18209-2.34527-.34486-3.07463S719.94844,407.65827,719.94844,407.65827Z" transform="translate(-89.41263 -50.62418)" opacity="0.1" />
		<path d="M690.72288,375.25779s-3.0211,5.81829.6904,13.37206,11.996,23.1251,21.6579,29.32653,23.4852,12.3097,23.4852,12.3097,1.31136-7.18317,3.52451-7.9918l-21.03356-13.76774s-15.761-36.1523-20.59824-35.42294A28.21505,28.21505,0,0,0,690.72288,375.25779Z" transform="translate(-89.41263 -50.62418)" fill="#575a89" />
		<path d="M687.21266,523.57662a42.57541,42.57541,0,1,1,42.57542-42.57541A42.62376,42.62376,0,0,1,687.21266,523.57662Zm0-84.22527a41.64986,41.64986,0,1,0,41.64987,41.64986A41.69715,41.69715,0,0,0,687.21266,439.35135Z" transform="translate(-89.41263 -50.62418)" fill="#3f3d56" />
		<path d="M687.21266,488.8684a7.8672,7.8672,0,1,1,7.8672-7.86719A7.876,7.876,0,0,1,687.21266,488.8684Zm0-14.80883a6.94164,6.94164,0,1,0,6.94165,6.94164A6.94937,6.94937,0,0,0,687.21266,474.05957Z" transform="translate(-89.41263 -50.62418)" fill="#3f3d56" />
		<polygon points="596.874 388.264 595.949 388.264 595.949 340.598 571.885 340.598 571.885 339.673 596.874 339.673 596.874 388.264" fill="#3f3d56" />
		<rect x="631.33482" y="403.53601" width="20.61004" height="0.92555" fill="#3f3d56" />
		<rect x="595.48616" y="371.60445" width="47.20318" height="0.92555" fill="#3f3d56" />
		<polygon points="676.242 458.291 651.524 404.191 652.366 403.806 676.702 457.07 698.958 447.078 699.338 447.922 676.242 458.291" fill="#3f3d56" />
		<ellipse cx="574.19845" cy="340.13567" rx="12.95773" ry="1.8511" fill="#3f3d56" />
		<path d="M298.36821,720.16113q24.26891-3.16558,46.668-5.3819l-5.74411-9.63063c1.99618-.55573,10.64146,5.0189,10.64146,5.0189l-7.3012-27.85136c9.97854,1.11993,14.61828,29.52661,14.61828,29.52661l11.31553-9.46109-5.57381,10.71609c45.69481-3.99154,85.12381-5.22194,118.26731-4.91416l-4.91639-8.24281c1.99618-.55573,10.64146,5.0189,10.64146,5.0189l-7.3012-27.85136c9.97854,1.11993,14.61828,29.52661,14.61828,29.52661l11.31553-9.46109-5.90355,11.35009c27.77736.77366,50.41056,2.61283,67.871,4.6169-4.903-12.81022-22.04495-25.13227-22.04495-25.13227,13.18416,3.44229,20.04087,9.04146,23.58844,14.22993a190.257,190.257,0,0,0-14.23616-77.4368S581.473,674.94228,577.461,708.35617l-.51007,5.93559c23.14955,3.03753,34.7648,6.05936,34.7648,6.05936Z" transform="translate(-89.41263 -50.62418)" fill="#3f3d56" />
		<path d="M455.18467,739.29932l-1.67214,19.22959-7.52462,1.67214-1.67214-5.01642s2.92624-13.79514,2.92624-16.30334Z" transform="translate(-89.41263 -50.62418)" fill="#a0616a" />
		<path d="M434.28294,725.92222s3.34428,8.36069,4.59838,9.19676-3.76231,11.705-3.76231,11.705l-7.52462-1.2541s2.5082-8.77873.418-13.79514Z" transform="translate(-89.41263 -50.62418)" fill="#a0616a" />
		<path d="M436.58213,730.72961s3.13526,1.04509,4.38936,5.64347a45.96375,45.96375,0,0,1,1.25411,5.01641l-2.09018,4.59838h-1.2541s-2.09017,7.10659-1.67214,9.6148-2.92624,12.123-8.77872,11.705-4.59838-7.52462-4.59838-7.52462l2.92624-14.63121s0-3.76231.83607-3.76231,7.52462,1.25411,7.52462,1.25411v1.2541S439.92641,737.41817,436.58213,730.72961Z" transform="translate(-89.41263 -50.62418)" fill="#2f2e41" />
		<path d="M447.242,756.43874v-2.50821s8.77873,1.2541,8.77873,2.50821V759.365s7.52462,15.88531-.83607,15.88531-10.03283-3.34428-10.03283-3.34428v-4.59838s-4.18035-2.09017-4.18035-3.34427,4.07935-12.3324,4.07935-12.3324S445.15184,758.11088,447.242,756.43874Z" transform="translate(-89.41263 -50.62418)" fill="#2f2e41" />
		<circle cx="367.86221" cy="485.51036" r="13.37711" fill="#a0616a" />
		<path d="M462.50027,546.37638s-1.67214,7.94266-1.67214,8.77873-7.94265,4.59838-7.94265,4.59838l-7.10659-1.25411-2.50821-7.52462s4.18035-6.27052,4.18035-8.77872Z" transform="translate(-89.41263 -50.62418)" fill="#a0616a" />
		<path d="M461.3811,551.88724s-4.31528,7.03018-10.5858,4.94a8.64772,8.64772,0,0,1-6.13394-8.08386l-20.62027,7.24779,3.76231,30.51652-3.34427,35.53293,2.50821,4.59838h36.787s1.2541-6.27051,1.67213-6.27051,1.25411-1.25411.83607-1.67214-1.2541-.83607-.83607-2.09018.83607-15.04924.83607-15.04924l12.541-36.369Z" transform="translate(-89.41263 -50.62418)" fill="#3f3d56" />
		<path d="M477.3405,631.44641l-7.52462,10.03283s-1.25411-10.45086-2.92625-10.8689L471.07,627.6841Z" transform="translate(-89.41263 -50.62418)" fill="#a0616a" />
		<path d="M393.73359,623.50375s-11.28693,7.10659-10.03283,11.705,14.21318-7.94265,14.21318-8.36069S393.73359,623.50375,393.73359,623.50375Z" transform="translate(-89.41263 -50.62418)" fill="#a0616a" />
		<path d="M463.96339,623.50375h.83607l1.2541,5.85249a13.96759,13.96759,0,0,1,3.34428,15.04924l-6.68855,43.89363-.83607,51.00021-7.52462,2.09017-8.36069-1.67213-2.09018-68.13963s-2.92624-6.27052-1.67213-8.36069-.418-1.67214-.418-1.67214l-8.77872,24.246s2.92624,7.94266,0,10.45086c0,0,.418,1.25411,0,1.67214s-2.50821,2.09017-1.67214,2.92624,1.2541,0,1.2541,1.25411,4.18035,11.705,2.50821,25.08207l-5.43445,8.36069-5.01641-2.92624-9.19676-25.91814s2.09017-3.76231,0-4.59838-2.50821-1.67214-1.67214-2.92624.83607-5.43445-.418-7.52463,0-5.43445,0-5.43445l4.59838-42.22148s-2.09017-11.28694,5.01642-17.13942l1.2541-4.59838S434.701,629.77427,463.96339,623.50375Z" transform="translate(-89.41263 -50.62418)" fill="#2f2e41" />
		<path d="M468.87543,525.35705s-4.24718-9.20223-12.38761-7.07864-12.74155,5.309-13.09548,8.49437a45.44748,45.44748,0,0,0,.177,7.96346s.88483-6.54774,6.54774-5.132,14.5112.35393,14.5112.35393l1.41572,12.74155s1.5927-2.30056,3.36236-.88483S474.53834,528.1885,468.87543,525.35705Z" transform="translate(-89.41263 -50.62418)" fill="#2f2e41" />
		<path d="M472.5331,565.18794h6.27052A16.99107,16.99107,0,0,1,483.82,578.565l2.92624,24.664s0,12.123-5.01641,20.90173l-5.43445,10.45086s-2.09017-5.85248-8.36069-5.01641l3.34428-8.77873v-2.09017a9.13773,9.13773,0,0,0,1.2541-2.09018c0-.418-1.67214-.418-.418-1.2541s2.5082-9.19676,2.5082-9.19676a7.06249,7.06249,0,0,0-.83607-2.09017c-.418-.418.418-1.67214.418-1.67214l-.83607-1.2541-5.43445-20.4837Z" transform="translate(-89.41263 -50.62418)" fill="#3f3d56" />
		<path d="M431.14768,554.73707l-7.10659,1.25411a27.347,27.347,0,0,0-5.85248,9.19676l-3.34428,15.04924-5.43444,10.8689s-6.27052,6.27052-10.8689,20.48369l-6.68856,12.541,7.10659,4.18034s19.64763-22.9919,22.15583-30.93455l10.8689-20.90173Z" transform="translate(-89.41263 -50.62418)" fill="#3f3d56" />
		<path d="M491.97222,119.71861A14.59459,14.59459,0,1,1,506.56681,105.124,14.61131,14.61131,0,0,1,491.97222,119.71861Zm0-26.75674A12.16216,12.16216,0,1,0,504.13438,105.124,12.17571,12.17571,0,0,0,491.97222,92.96187Z" transform="translate(-89.41263 -50.62418)" fill="#3f3d56" />
		<path d="M608.51929,268.44946H584.5098V244.44h24.00949Zm-22.16261-1.84688h20.31573V246.28685H586.35668Z" transform="translate(-89.41263 -50.62418)" fill="#3f3d56" />
		<path d="M105.78908,483.817,89.41263,466.25948,106.97017,449.883l16.37646,17.55754ZM92.02294,466.35034l13.857,14.85638,14.85638-13.857-13.857-14.85639Z" transform="translate(-89.41263 -50.62418)" fill="#3f3d56" />
		<path d="M390.53908,620.35907l1.74321,2.29356a.10072.10072,0,0,1-.01919.14075l-.05692.04325,9.081,11.948a1.566,1.566,0,0,1-.29915,2.19416l-7.4656,5.67417a1.56557,1.56557,0,0,1-2.19381-.29941l-8.76247-11.52892-.0412.03132a.071.071,0,0,1-.09931-.01323l-.99209-1.30531a.071.071,0,0,1,.01357-.09957l.04121-.03132-.3737-.49168-.04155.03159a.07442.07442,0,0,1-.10414-.01451l-.97856-1.28751a.07432.07432,0,0,1,.01416-.10387l.04156-.03159-.51012-.67117-.04225.03212a.06569.06569,0,0,1-.09219-.01257l-.534-.70259a.06608.06608,0,0,1,.01231-.09254l.04225-.03212-1.08127-1.42265a1.56548,1.56548,0,0,1,.29906-2.19355l7.4656-5.67417a1.56586,1.56586,0,0,1,2.1939.2988l2.54208,3.34466.05692-.04326A.1007.1007,0,0,1,390.53908,620.35907Z" transform="translate(-89.41263 -50.62418)" fill="#3f3d56" />
		<rect x="381.34559" y="620.36753" width="1.74672" height="0.35468" rx="0.14581" transform="matrix(0.79615, -0.6051, 0.6051, 0.79615, -386.99027, 307.15872)" fill="#e6e8ec" />
		<circle cx="293.87208" cy="569.11067" r="0.20118" fill="#e6e8ec" />
		<path d="M387.38977,617.73875l13.379,17.60295a.9904.9904,0,0,1,.17933.81294.99314.99314,0,0,1-.36939.5788l-7.14643,5.43159a.99062.99062,0,0,1-.433.18857.92839.92839,0,0,1-.11132.013.99427.99427,0,0,1-.84756-.391l-13.379-17.60295a.99343.99343,0,0,1,.18979-1.3921l1.06961-.81294.1043.13723a.818.818,0,0,0,1.14625.15628l3.6345-2.76238a.818.818,0,0,0,.15628-1.14624l-.10431-.13724,1.1398-.86629A.99314.99314,0,0,1,387.38977,617.73875Z" transform="translate(-89.41263 -50.62418)" fill="#ffffff" />
		<path d="M944.50771,319.36966v15.197s1.21576,17.02065,7.90245,25.531c0,0,10.94185,15.50095,12.46155,12.15761l-1.87166-11.00712-6.33473-6.01354L953.322,336.39032l-.91182-17.02066Z" transform="translate(-89.41263 -50.62418)" fill="#ffb8b8" />
		<polygon points="922.266 406.126 922.266 417.372 913.148 420.716 913.148 407.646 922.266 406.126" fill="#ffb8b8" />
		<polygon points="903.726 404.911 909.804 418.588 901.294 422.235 899.47 408.862 903.726 404.911" fill="#ffb8b8" />
		<path d="M1008.33516,350.67551s12.15761,109.72242,7.59851,110.02636-13.37337,6.07881-13.37337,2.12759-6.99063-55.31713-6.99063-55.31713l-6.68668-26.4428v36.47283l6.99062,41.33587s-6.68668,8.81427-11.54973,3.64729l-10.334-40.42406s-13.67731-61.39592-13.06943-66.259C960.92048,355.84249,992.22633,329.09575,1008.33516,350.67551Z" transform="translate(-89.41263 -50.62418)" fill="#2f2e41" />
		<path d="M1005.90364,468.60432s2.43152-5.167,7.90245-1.82364l4.5591,5.47092s11.75417,9.7343,3.41356,11.81946c-8.59673,2.14918-13.74753-.13724-13.74753-.13724a6.646,6.646,0,0,0-2.73546-.91182c-1.21576,0-3.95122-2.12758-3.95122-2.73546s.91182-11.37828.91182-11.37828a1.9166,1.9166,0,0,1,2.12758.30394C1005.29576,470.124,1005.90364,468.60432,1005.90364,468.60432Z" transform="translate(-89.41263 -50.62418)" fill="#2f2e41" />
		<path d="M987.97117,466.78068s5.77486-4.5591,8.51032.60788c0,0,1.72233.60788,1.925,0s1.72232-.91182,1.72232,2.43152,1.65046,11.68222.13076,11.98616-3.0394,1.21576-2.73546,2.43152-1.65046,1.38721-8.64108,1.08327-7.29457-3.0394-7.29457-3.0394,0-3.95122,1.82364-6.0788S987.97117,466.78068,987.97117,466.78068Z" transform="translate(-89.41263 -50.62418)" fill="#2f2e41" />
		<path d="M976.72538,267.69982s-1.5197,11.24579,8.20638,15.197S963.352,299.91749,960.3126,292.319s.60788-10.03.60788-10.03,3.03941-3.03941.30394-11.24579Z" transform="translate(-89.41263 -50.62418)" fill="#ffb8b8" />
		<circle cx="877.58666" cy="211.60472" r="13.37337" fill="#ffb8b8" />
		<path d="M982.50024,286.54412s-9.11821,4.863-17.93247,1.21576-8.51033,12.15761-8.51033,12.15761l4.5591,11.85367,31.60979-3.0394-2.12758-18.23642Z" transform="translate(-89.41263 -50.62418)" fill="#f2f2f2" />
		<path d="M977.97,276.14424a11.03376,11.03376,0,0,1,7.56961,5.84078l14.58913,4.5591,3.64729,5.167-4.25517,37.38465s7.90245,7.59851,7.90245,11.85367,9.72609,18.8443,4.863,17.02065-13.67731-8.20638-13.67731-8.20638-22.18763.91182-29.17826,6.99062-9.72609,4.25517-9.72609,4.25517-7.29456-31.60979-7.5985-36.47283-8.81427-34.04131-8.81427-34.04131l15.197-8.51032,3.87077-4.39191,10.71836,17.15739,9.72609-11.85366S977.99891,279.11772,977.97,276.14424Z" transform="translate(-89.41263 -50.62418)" fill="#d0cde1" />
		<path d="M1008.33516,315.1145l1.82364,9.72609s8.20639,30.394,6.99063,40.728c0,0,.91182,23.09946-4.25517,20.364s-2.43152-19.45218-2.43152-19.45218l-7.29456-30.09008L999.217,318.76178Z" transform="translate(-89.41263 -50.62418)" fill="#ffb8b8" />
		<path d="M1000.73666,289.88746l3.0394,1.82364s11.54973,24.01128,8.81426,25.83492-14.58913,5.77487-14.58913,5.77487Z" transform="translate(-89.41263 -50.62418)" fill="#d0cde1" />
		<polygon points="861.174 239.871 854.031 239.719 852.36 242.607 854.487 272.089 865.429 274.52 861.174 239.871" fill="#d0cde1" />
		<path d="M977.88943,250.91849l2.41049-.87654s-5.04008-5.04008-12.05243-4.60179l1.97227-1.97223s-4.821-1.75305-9.20365,2.84874a39.15117,39.15117,0,0,0-6.63127,8.46569h-2.58146l1.07741,2.15482-3.77092,2.15481,3.87048-.38706a10.87333,10.87333,0,0,0,.36608,5.58072l.87651,2.41045s3.50617-7.01228,3.50617-7.88882v2.19134s2.41049-1.9722,2.41049-3.287l1.31479,1.53394.6574-2.41049,8.108,2.41049-1.3148-1.9722,5.04008.6574-1.97226-2.41048s5.69748,2.84873,5.91665,5.25922a20.33457,20.33457,0,0,0,1.72338,5.55258l1.82364-2.12758S984.24431,254.20549,977.88943,250.91849Z" transform="translate(-89.41263 -50.62418)" fill="#2f2e41" />
		<ellipse cx="888.83245" cy="211.75669" rx="1.06379" ry="2.73546" fill="#ffb8b8" />
		<path d="M1048.14533,425.02675c-15.7779,10.98526-20.79866,31.05011-20.79866,31.05011s20.56028,2.25423,36.33818-8.731,20.79866-31.05012,20.79866-31.05012S1063.92323,414.04148,1048.14533,425.02675Z" transform="translate(-89.41263 -50.62418)" fill="#3f3d56" />
		<path d="M1054.38806,430.62652c-7.9786,17.49171-26.81824,26.02837-26.81824,26.02837s-5.90376-19.823,2.07485-37.31473,26.81824-26.02837,26.81824-26.02837S1062.36667,413.1348,1054.38806,430.62652Z" transform="translate(-89.41263 -50.62418)" fill="#ffffff" />
		<circle cx="284.68109" cy="546.08084" r="3.64865" fill="#f2f2f2" />
		<circle cx="268.87029" cy="518.10788" r="12.16216" fill="#f2f2f2" />
		<circle cx="246.97841" cy="462.16196" r="23.1081" fill="#ffffff" />
		<path d="M277.56169,180.0068a83.93931,83.93931,0,0,0-70.05428,95.83331c7.11867,45.80855,113.55638,184.102,113.55638,184.102s59.44988-164.07247,52.33121-209.881A83.93932,83.93932,0,0,0,277.56169,180.0068Zm19.6565,126.48929A44.06816,44.06816,0,1,1,333.9967,256.1836,44.0682,44.0682,0,0,1,297.21819,306.49609Z" transform="translate(-89.41263 -50.62418)" fill="#ffffff" />
	</symbol>
	<symbol id="svg-user" viewBox="0 0 200.688 200.688">
		<path d="M190.985,111.644l-0.293-0.347c-1.399-1.729-4.459-4.187-8.922-5.891l-0.684-0.208
		c-4.649-2.144-8.861-3.582-10.096-3.987c-0.97-0.319-1.782-0.666-2.43-0.948c-5.128-2.53-5.708-4.008-5.791-4.237l-0.233-0.544
		l0.197-0.49c3.811-4.746,6.488-10.275,7.508-15.486l0.15-0.354c1.052-1.342,1.725-2.91,1.993-4.638
		c1.213-4.384,1.263-7.605,0.175-9.863l-0.097-0.2l0.05-0.222c1.353-5.665,2.656-16.277-3.847-23.681
		c-1.038-1.303-5.025-5.705-12.759-7.97l-3.772-1.292c-6.181-1.904-10.089-2.362-10.74-2.373c-0.412,0-0.78,0.05-1.317,0.168
		l-0.465,0.093c-0.272-0.043-0.555-0.068-0.873-0.068c-2.069,0-4.305,0.909-4.305,0.909c-2.18,0.916-13.252,6.023-16.763,16.874
		c-0.583,1.542-1.772,6.231-0.233,16.488l0.039,0.254l-0.161,0.215c-1.578,2.126-1.711,5.572-0.397,10.203
		c0.344,2.051,1.013,3.69,1.997,4.924l0.165,0.347c0.97,5.372,3.357,10.665,6.904,15.317l0.283,0.376l-0.265,0.376
		c-0.154,0.229-0.261,0.465-0.301,0.637c-0.544,1.553-4.706,4.012-11.159,6.596c-1.442-0.523-2.444-0.852-2.799-0.97
		c-1.306-0.437-2.398-0.905-3.282-1.292c-6.825-3.368-7.723-5.332-7.859-5.783l-0.358-0.798l0.315-0.741
		c5.121-6.381,8.715-13.811,10.096-20.843l0.211-0.483c1.417-1.8,2.323-3.905,2.663-6.199c1.628-5.866,1.714-10.182,0.247-13.192
		l-0.161-0.319l0.086-0.344c1.822-7.609,3.568-21.845-5.161-31.762c-1.385-1.736-6.703-7.641-17.096-10.683l-5.078-1.743
		C77.89,4.865,72.629,4.296,71.946,4.289c-0.558,0-1.041,0.061-1.746,0.229l-0.68,0.111c-2.813-0.455-6.27,0.88-6.896,1.124
		c-2.928,1.228-17.769,8.092-22.475,22.643c-0.784,2.061-2.373,8.346-0.308,22.114l0.061,0.415l-0.258,0.344
		c-2.104,2.813-2.265,7.412-0.501,13.621c0.451,2.734,1.346,4.917,2.673,6.589l0.233,0.49c1.285,7.208,4.491,14.326,9.266,20.593
		l0.447,0.583l-0.426,0.616c-0.208,0.304-0.347,0.616-0.379,0.812c-1.185,3.375-14.394,9.276-25.968,12.809
		c-8.332,3.157-11.989,8.271-12.011,8.303C1.503,132.72,0.05,169.292,0,170.863c0.179,9.513,4.499,11.445,5.329,11.724l0.73,0.319
		c25.385,11.077,62.462,13.235,66.61,13.446l1.296,0.039c1.238,0,2.494-0.068,3.672-0.132l0.104-0.004l0.383,0.029
		c0.308,0.075,0.558,0.115,0.816,0.115h0.004l0.175-0.007c1.678-0.086,41.486-2.348,66.327-13.496
		c1.356-0.358,5.737-2.24,6.131-11.488c8.858-0.766,30.048-3.207,44.439-9.659c1.066-0.279,4.556-1.761,4.674-9.273
		C200.527,149.587,199.142,123.776,190.985,111.644z M55.104,98.377l0.691-0.644l0.687,0.644c6.077,5.726,12.809,8.872,18.936,8.872
		c6.438,0,13.084-2.792,19.218-8.081l0.519-0.437L96.5,99.39c1.145,1.041,3.196,2.537,4.116,2.988l1.267,0.619l-0.136,0.129
		l0.487,0.293c1.16,0.684,2.394,1.353,3.804,2.054c1.428,0.633,2.652,1.109,3.951,1.539c0.254,0.086,6.317,2.044,13.227,5.243
		l1.235,0.383c6.567,2.502,9.344,6.027,9.445,6.148c10.193,15.131,11.907,48.157,12.075,51.85c-0.079,5.161-1.55,6.499-1.933,6.757
		c-22.844,10.225-57.355,12.884-64.033,13.31l-0.186,0.011l-0.19-0.057c-0.225-0.068-0.455-0.1-0.741-0.1h-0.007l-0.236,0.011
		c-1.825,0.125-3.335,0.186-4.746,0.186h-1.106c-4.159-0.251-41.372-2.688-65.189-13.285c-0.48-0.2-1.886-1.825-1.99-6.571
		c0.004-0.354,1.228-36.003,11.925-51.893c0.523-0.659,3.432-4.048,9.244-6.267c5.107-1.571,17.751-5.762,24.665-10.769
		c0.29-0.175,0.576-0.469,0.884-0.784C52.838,100.639,53.89,99.508,55.104,98.377z M126.273,107.299l-0.945-0.276
		c-1.553-0.716-3.182-1.424-4.867-2.115c2.38-1.113,4.327-2.205,5.773-3.26c0.233-0.136,0.465-0.372,0.684-0.601
		c0.523-0.562,1.228-1.317,2.051-2.086l0.44-0.404l0.422,0.412c4.549,4.273,9.573,6.617,14.144,6.617
		c4.817,0,9.781-2.083,14.351-6.027l0.326-0.276l0.923,0.447c0.841,0.784,2.373,1.886,3.056,2.226l0.798,0.379l-0.097,0.097
		l0.501,0.293c0.87,0.519,1.8,1.013,2.842,1.528c1.07,0.472,1.979,0.83,2.942,1.152c0.186,0.061,4.656,1.496,9.824,3.89l0.909,0.279
		c4.706,1.8,6.753,4.27,6.95,4.527c7.605,11.273,8.833,35.71,8.944,38.433c-0.054,3.779-1.102,4.746-1.364,4.917
		c-14.308,6.403-34.851,8.808-43.49,9.566c-0.777-11.216-3.547-37.632-12.787-51.371l-0.39-0.469
		C136.34,112.868,132.239,109.583,126.273,107.299z M120.922,66.479l0.161-0.19c0.723-0.53,1.077-1.349,0.941-2.197
		c-1.718-10.318-0.601-14.648-0.218-15.74c2.996-9.187,12.419-13.474,14.272-14.233c0.372-0.143,1.092-0.358,1.854-0.487
		l0.229-0.054l1.421-0.075l0.011,0.097l0.429-0.039c0.319-0.025,0.626-0.075,0.841-0.122l0.48-0.107
		c0.304,0.007,4.026,0.49,9.42,2.144l3.804,1.306c6.907,2.04,10.107,5.851,10.697,6.621c5.551,6.299,4.062,15.776,2.677,20.868
		c-0.157,0.626-0.061,1.27,0.297,1.797l0.308,0.397c0.39,0.523,0.744,2.602-0.458,7.083c-0.225,1.36-0.73,2.452-1.453,3.178
		c-0.293,0.308-0.49,0.709-0.562,1.167c-1.872,10.998-11.721,23.291-22.096,23.291c-8.811,0-18.857-11.316-20.664-23.291
		c-0.075-0.455-0.268-0.855-0.587-1.217c-0.737-0.762-1.213-1.875-1.507-3.554C120.35,70.008,120.253,67.492,120.922,66.479z
		 M44.249,54.626l0.24-0.276c0.931-0.669,1.381-1.721,1.21-2.809c-2.33-13.986-0.809-19.805-0.286-21.266
		C49.46,17.853,62.215,12.045,64.72,11.014c0.523-0.2,1.496-0.494,2.527-0.662l0.276-0.064l2.101-0.115l0.007,0.132l0.451-0.043
		c0.419-0.039,0.83-0.104,1.31-0.2l0.48-0.111c0.39,0.004,5.315,0.623,12.741,2.899l5.107,1.757
		c9.334,2.759,13.682,7.924,14.48,8.958c7.508,8.521,5.504,21.344,3.643,28.234c-0.218,0.795-0.086,1.621,0.369,2.294l0.415,0.533
		c0.684,0.916,0.941,3.983-0.587,9.663c-0.308,1.854-0.998,3.357-2.008,4.355c-0.369,0.394-0.608,0.909-0.712,1.492
		c-2.541,14.87-15.869,31.497-29.905,31.497c-11.928,0-25.528-15.303-27.983-31.487c-0.082-0.583-0.322-1.109-0.744-1.568
		c-1.024-1.056-1.671-2.577-2.069-4.839C43.437,59.479,43.315,56.054,44.249,54.626z" />
	</symbol>
	<symbol id="svg-home" viewBox="0 0 58.365 58.365">
		<path d="M57.863,26.632l-8.681-8.061V5.365h-10v3.921L29.182,0L0.502,26.632c-0.404,0.376-0.428,1.009-0.052,1.414
		c0.375,0.404,1.008,0.427,1.414,0.052l3.319-3.082v33.349h16h16h16V25.015l3.319,3.082c0.192,0.179,0.437,0.267,0.681,0.267
		c0.269,0,0.536-0.107,0.732-0.319C58.291,27.641,58.267,27.008,57.863,26.632z M41.182,7.365h6v9.349l-6-5.571V7.365z
		 M23.182,56.365V35.302c0-0.517,0.42-0.937,0.937-0.937h10.126c0.517,0,0.937,0.42,0.937,0.937v21.063H23.182z M51.182,56.365h-14
		V35.302c0-1.62-1.317-2.937-2.937-2.937H24.119c-1.62,0-2.937,1.317-2.937,2.937v21.063h-14V23.158l22-20.429l14.28,13.26
		l5.72,5.311v0l2,1.857V56.365z" />
	</symbol>
	<symbol id="svg-graph" viewBox="0 0 56 56">
		<path d="M47.533,0H8.467C3.798,0,0,3.798,0,8.467v39.066C0,52.202,3.798,56,8.467,56h39.066C52.202,56,56,52.202,56,47.533V8.467
	C56,3.798,52.202,0,47.533,0z M54,47.533C54,51.099,51.099,54,47.533,54H8.467C4.901,54,2,51.099,2,47.533V30.414l6.247-6.247
	C9.038,24.691,9.983,25,11,25s1.962-0.309,2.753-0.833l10.08,10.08C23.309,35.038,23,35.983,23,37c0,2.757,2.243,5,5,5s5-2.243,5-5
	c0-1.017-0.309-1.962-0.833-2.753L46,20.414V27c0,0.553,0.447,1,1,1s1-0.447,1-1V17H38c-0.553,0-1,0.447-1,1s0.447,1,1,1h6.586
	L30.753,32.833C29.962,32.309,29.017,32,28,32s-1.962,0.309-2.753,0.833l-10.08-10.08C15.691,21.962,16,21.017,16,20
	c0-2.757-2.243-5-5-5s-5,2.243-5,5c0,1.017,0.309,1.962,0.833,2.753L2,27.586V8.467C2,4.901,4.901,2,8.467,2h39.066
	C51.099,2,54,4.901,54,8.467V47.533z M11,23c-1.654,0-3-1.346-3-3s1.346-3,3-3s3,1.346,3,3S12.654,23,11,23z M31,37
	c0,1.654-1.346,3-3,3s-3-1.346-3-3s1.346-3,3-3S31,35.346,31,37z" />
	</symbol>
	<symbol id="svg-logout" viewBox="0 0 256 256">
		<path d="M218.82861,130.82812l-41.98877,42a4.00009,4.00009,0,1,1-5.65771-5.65624L206.34473,132H104a4,4,0,0,1,0-8H206.34473l-35.1626-35.17188a4.00009,4.00009,0,1,1,5.65771-5.65624l41.98877,42A3.99942,3.99942,0,0,1,218.82861,130.82812ZM104,212H48a4.00427,4.00427,0,0,1-4-4V48a4.00427,4.00427,0,0,1,4-4h56a4,4,0,0,0,0-8H48A12.01343,12.01343,0,0,0,36,48V208a12.01343,12.01343,0,0,0,12,12h56a4,4,0,0,0,0-8Z" />
	</symbol>
	<symbol id="svg-get" viewBox="0 0 32 32">
		<path class="sketchy_een" d="M19.296,13.876c-0.003,0.02-0.005,0.04-0.008,0.06c-0.002,0.012-0.004,0.024-0.005,0.037
		C19.287,13.941,19.291,13.908,19.296,13.876z M29.985,25.708c-0.015,0.198-0.067,0.367-0.212,0.512
		c-0.137,0.137-0.321,0.213-0.513,0.213c-0.063,0-0.123-0.021-0.184-0.039c-0.106,0.051-0.221,0.084-0.345,0.084
		c-0.492,0.002-0.987-0.033-1.479-0.052c-0.489-0.015-0.977-0.05-1.465-0.071c-0.508-0.023-1.019-0.017-1.527-0.017
		c-0.517-0.002-1.037-0.004-1.554-0.004c-1.652-0.008-3.304-0.012-4.956,0.021c-0.81,0.015-1.621,0.023-2.433,0.029
		c-0.798,0.004-1.596,0.027-2.396,0.033c-0.746,0.008-1.492,0.004-2.239,0c-0.912-0.004-1.825-0.008-2.737,0.006
		c-0.821,0.012-1.642,0-2.466,0.012c-0.86,0.013-1.719,0.052-2.579,0.073c-0.45,0.013-0.825-0.383-0.825-0.823
		c0-0.114,0.023-0.221,0.066-0.319c-0.01-0.528-0.013-1.056-0.031-1.586c-0.019-0.594-0.031-1.189-0.042-1.783
		c-0.019-1.202-0.044-2.404-0.062-3.606c-0.012-0.792-0.008-1.589,0.013-2.381c0.025-0.863,0.098-1.74,0.273-2.587
		c0.081-0.388,0.165-0.779,0.296-1.154c0.083-0.24,0.173-0.485,0.304-0.704c0.1-0.169,0.21-0.331,0.325-0.488
		c0.158-0.215,0.319-0.429,0.51-0.615c0.179-0.177,0.381-0.329,0.587-0.471c0.358-0.246,0.733-0.467,1.108-0.685
		c0.134-0.079,0.282-0.116,0.429-0.116c0.099,0,0.195,0.023,0.288,0.055C6.193,9.231,6.244,9.21,6.301,9.21
		c0.542,0,1.087,0.006,1.629,0.013c0.425,0.006,0.852,0.008,1.279,0.009c-0.006-0.732-0.02-1.464-0.022-2.197
		c-0.001-0.15,0.056-0.282,0.134-0.4C9.295,6.556,9.27,6.476,9.27,6.391c0-0.467,0.381-0.823,0.839-0.839
		c0.956-0.031,1.91-0.021,2.866-0.019c0.367,0.002,0.735-0.01,1.102-0.019c0.362-0.011,0.723-0.021,1.084-0.021
		c0.092,0,0.183,0.001,0.275,0.002c0.433,0.008,0.792,0.354,0.792,0.792c0,0.188-0.076,0.353-0.187,0.488
		c0.05,0.509,0.081,1.018,0.117,1.529c0.021,0.302,0.045,0.603,0.063,0.906c0.585,0.009,1.17,0.018,1.756,0.032
		c0.737,0.019,1.473,0.015,2.21,0.015c1.469,0,2.939-0.048,4.408-0.071c0.003,0,0.007,0,0.01,0c0.075,0,0.144,0.022,0.212,0.045
		c0.085-0.003,0.169-0.013,0.254-0.013c0.052,0,0.104,0.001,0.156,0.002c0.915,0.021,1.881,0.212,2.608,0.804
		c0.298,0.242,0.554,0.556,0.773,0.871c0.225,0.321,0.402,0.683,0.527,1.054c0.254,0.748,0.321,1.55,0.375,2.335
		c0.056,0.8,0.062,1.602,0.1,2.402c0.071,1.535,0.292,3.058,0.352,4.593c0.031,0.756,0.037,1.512,0.035,2.269
		c-0.002,0.377-0.006,0.756-0.004,1.135C29.992,25.023,30.014,25.367,29.985,25.708z M20.712,14.645
		c-0.008,0.06-0.016,0.12-0.024,0.18c0.009-0.065,0.017-0.129,0.026-0.194C20.713,14.635,20.712,14.64,20.712,14.645z M10.687,7.204
		c0,0.017,0,0.033,0,0.05c-0.006,0.802-0.017,1.604-0.013,2.406c0.004,0.75,0.027,1.5,0.037,2.25c0.01,0.715,0.015,1.431,0.027,2.146
		c0.006,0.358,0.01,0.714,0.021,1.071c0.004,0.121,0.014,0.242,0.024,0.362c0.298,0.016,0.594,0.013,0.891,0.011
		c-0.04-0.323-0.083-0.646-0.111-0.971c-0.04-0.492-0.06-0.987-0.058-1.481c0.004-1.023,0.019-2.048,0.075-3.071
		c0.011-0.181,0.082-0.342,0.186-0.475c0.114-0.304,0.396-0.555,0.727-0.555c0.017,0,0.033,0.001,0.05,0.002
		c0.713,0.055,1.427,0.09,2.142,0.096c-0.039-0.652-0.096-1.303-0.169-1.953c-0.539,0.008-1.078,0.016-1.617,0.025
		C12.161,7.13,11.424,7.169,10.687,7.204z M19.03,24.779c0.012-0.505,0.025-1.009,0.015-1.514c-0.012-0.769-0.027-1.539-0.023-2.308
		c0.006-0.752,0.012-1.506,0.015-2.26c0.004-0.773-0.013-1.546,0-2.317c0.014-0.789,0.129-1.577,0.238-2.358
		c-0.002,0.018-0.005,0.037-0.007,0.056c0.003-0.026,0.007-0.053,0.01-0.079c0.003-0.021,0.006-0.042,0.009-0.062
		c0.042-0.332,0.084-0.663,0.145-0.991c0.06-0.325,0.117-0.656,0.238-0.964c0.09-0.231,0.188-0.44,0.325-0.646
		c0.123-0.187,0.265-0.369,0.415-0.535c0.035-0.038,0.076-0.069,0.112-0.106c-0.151,0-0.302,0.004-0.453,0.004
		c-0.737,0-1.475-0.01-2.214-0.006c-0.783,0.002-1.564,0.015-2.346,0.021c-0.122,0.001-0.233-0.036-0.335-0.089
		c-0.071,0.021-0.142,0.045-0.219,0.046c-0.625,0.01-1.249-0.002-1.873-0.029c-0.023,0.344-0.05,0.687-0.06,1.031
		c-0.013,0.477-0.013,0.956-0.006,1.433c0.006,0.487,0.021,0.973,0.073,1.456c0.048,0.458,0.108,0.912,0.162,1.367
		c0.023,0.19-0.094,0.414-0.225,0.542c-0.029,0.029-0.067,0.043-0.1,0.067c-0.038,0.122-0.095,0.237-0.187,0.329
		c-0.16,0.16-0.348,0.215-0.567,0.235c-0.227,0.019-0.456,0.017-0.685,0.013c-0.098,0-0.198-0.002-0.296-0.002
		c-0.381,0.002-0.762,0.004-1.144-0.002c-0.45-0.008-0.827-0.371-0.827-0.827c0-0.105,0.023-0.206,0.062-0.301
		c0-0.008,0-0.015,0-0.023c0.004-0.327,0.025-0.652,0.017-0.977c-0.008-0.371-0.017-0.74-0.025-1.11
		c-0.015-0.706-0.025-1.414-0.04-2.119c-0.008-0.346-0.005-0.692-0.011-1.039c-0.974,0.019-1.948,0.059-2.922,0.071
		c-0.004,0.002-0.005,0.006-0.009,0.008c-0.404,0.23-0.809,0.457-1.191,0.723c-0.177,0.158-0.335,0.326-0.488,0.506
		c0.002-0.002,0.003-0.004,0.005-0.006c-0.007,0.009-0.015,0.019-0.022,0.028c-0.145,0.195-0.266,0.402-0.371,0.621
		C3.97,13.372,3.81,14.099,3.7,14.84c-0.04,0.328-0.074,0.656-0.089,0.985c-0.04,0.823-0.052,1.646-0.056,2.469
		c-0.002,0.804,0.031,1.61,0.035,2.415c0.007,1.382,0.053,2.764,0.099,4.145c0.838-0.008,1.675-0.013,2.513-0.016
		c1.044-0.004,2.087-0.006,3.131,0.004c0.823,0.008,1.648,0.019,2.471,0.023c0.831,0.006,1.66-0.015,2.49-0.027
		c0.792-0.01,1.585-0.002,2.377-0.019C17.457,24.803,18.243,24.783,19.03,24.779z M28.552,24.828
		c-0.002-0.203-0.004-0.405-0.006-0.607c-0.002-0.525-0.008-1.048-0.013-1.573c-0.01-0.787-0.046-1.569-0.112-2.352
		c-0.062-0.74-0.152-1.479-0.196-2.219c-0.046-0.777-0.077-1.554-0.1-2.333c-0.023-0.723-0.055-1.445-0.139-2.163
		c-0.066-0.414-0.148-0.812-0.29-1.204c-0.106-0.229-0.232-0.443-0.38-0.648c-0.135-0.162-0.28-0.315-0.44-0.454
		c-0.076-0.05-0.154-0.096-0.236-0.137c-0.23-0.081-0.467-0.145-0.707-0.187c-0.48-0.049-0.959-0.045-1.441-0.03
		c-0.464,0.013-0.93,0.042-1.391,0.094c-0.223,0.036-0.436,0.091-0.648,0.169c-0.09,0.044-0.177,0.091-0.262,0.145
		c-0.272,0.226-0.529,0.48-0.756,0.751c-0.102,0.143-0.192,0.288-0.269,0.444c-0.248,0.67-0.35,1.397-0.453,2.101
		c-0.061,0.464-0.119,0.93-0.148,1.396c-0.05,0.767-0.044,1.535-0.046,2.302c-0.002,0.75,0.01,1.5,0.013,2.25
		c0.004,0.767,0,1.537,0.015,2.304c0.012,0.632,0.029,1.265,0.029,1.897c1.165-0.002,2.331-0.004,3.496-0.005
		c0.379,0,0.758-0.003,1.137-0.003c0.411,0,0.821,0.003,1.232,0.016C27.146,24.803,27.849,24.823,28.552,24.828z M19.276,14.023
		c0.001-0.008,0.002-0.016,0.003-0.024c0.001-0.009,0.002-0.017,0.003-0.026C19.28,13.99,19.278,14.006,19.276,14.023z
		 M26.438,13.973c-0.214-0.017-0.427-0.01-0.64-0.006c-0.308,0.002-0.615,0.008-0.923,0.008c-0.662,0-1.323-0.038-1.985-0.052
		c-0.005,0-0.011,0-0.016,0c-0.429,0-0.784,0.377-0.784,0.8c0,0.44,0.363,0.794,0.8,0.8c0.662,0.01,1.323,0.008,1.985,0.021
		c0.185,0.006,0.369,0.004,0.554,0.002c0.337-0.002,0.673-0.004,1.01,0.025c0.435,0.038,0.798-0.392,0.798-0.8
		c0-0.21-0.085-0.415-0.233-0.565C26.843,14.048,26.655,13.99,26.438,13.973z" />
	</symbol>
	<symbol id="svg-books" viewBox="0 0 64 64">
		<g id="Books_1_">
			<path d="M62.9994125,39.4741516h-1.9568176c-2.3530006-5.0440025-2.3532982-9.9673023,0-15.0459023h1.9568176
				c0.5526848,0,1-0.4477997,1-1c0-0.5522995-0.4473152-1-1-1H25.8977966v-0.7432003h31.9053001c0.5527,0,1-0.4476986,1-1
				c0-0.5521984-0.4473-1-1-1h-1.9568024c-2.3532982-5.0436993-2.3522987-9.9664993,0.0003014-15.0463991h1.956501
				c0.5527,0,1-0.4477,1-1c0-0.5521998-0.4473-1-1-1H5.2444973c-0.3632998,0-0.6981997,0.1973-0.875,0.5152001
				C0.7366974,9.70895,0.7522975,15.7949495,4.414412,21.2431507c0.1855855,0.2763996,0.4970856,0.4418983,0.8300853,0.4418983
				h10.1299143v0.7432003h-4.9336147c-0.3632994,0-0.6981993,0.1972008-0.875,0.5151005
				C5.9319973,29.4980507,5.9475975,35.58395,9.6106968,41.0322495c0.1856003,0.2763023,0.4971008,0.4419022,0.8301001,0.4419022
				h52.5586166c0.5526848,0,1-0.4478035,1-1C63.9994125,39.9218483,63.5520973,39.4741516,62.9994125,39.4741516z
				 M17.3744125,11.6435499h6.5233841v17.3358994l-2.8486004-1.2915001c-0.2636986-0.1191006-0.5625-0.1191006-0.8261986,0
				l-2.8485851,1.2915001V11.6435499z M5.7874975,19.6850491c-2.875-4.5765991-2.8574002-9.5087986,0.0537-15.0463991h47.8217964
				c-2.0849991,5.0116997-2.0861969,10.0642004-0.0029984,15.0463991H25.8977966v-8.0414991h16.0458984c0.552803,0,1-0.4476995,1-1
				c0-0.5522003-0.447197-1-1-1H12.1126976c-0.5528002,0-1,0.4477997-1,1c0,0.5523005,0.4471998,1,1,1h3.261714v8.0414991H5.7874975z
				 M11.0374975,24.4282494h4.3369141v6.1025009c0,0.3398991,0.1727858,0.6562996,0.4580002,0.8402996
				c0.2860861,0.1846008,0.6464853,0.2115002,0.9550848,0.0704002l3.8486004-1.7446995l3.8486004,1.7446995
				c0.1318989,0.0599995,0.2724991,0.0893002,0.4130993,0.0893002c0.1895008,0,0.3780003-0.0536995,0.5419998-0.1597004
				c0.2852001-0.184,0.4580002-0.5004005,0.4580002-0.8402996v-6.1025009h32.9612007
				c-2.085701,5.0107002-2.0862007,10.0629997-0.0023994,15.0459023H10.9827976
				C8.1077976,34.8974495,8.125412,29.9658508,11.0374975,24.4282494z" />
			<path d="M54.1919975,44.3154488h1.9567986c0.5527,0,1-0.4477997,1-1c0-0.5522995-0.4473-1-1-1H3.5901973
				c-0.3632998,0-0.6982,0.1972008-0.875,0.5151024c-3.6346998,6.5546989-3.6190999,12.6405983,0.0449002,18.0888977
				c0.1866,0.2764015,0.4970999,0.4419022,0.8300998,0.4419022h52.5585976c0.5527,0,1-0.4477997,1-1c0-0.5522995-0.4473-1-1-1
				h-1.9567986C51.8389969,54.3168488,51.8387947,49.3940506,54.1919975,44.3154488z M4.1321974,59.361351
				c-2.8759999-4.5767021-2.8583999-9.5088005,0.0546999-15.0459023h47.8215141
				c-2.0857162,5.0107002-2.0859146,10.0627022-0.0024147,15.0459023H4.1321974z" />
		</g>
	</symbol>
	<symbol id="svg-news" viewBox="0 0 492.308 492.308">
		<g>
			<g>
				<path d="M100.649,0v227.433H0v204.702c0,33.183,26.995,60.173,60.173,60.173h371.966c33.178,0,60.168-27.462,60.168-61.221V0
					H100.649z M100.649,432.135c0,22.317-18.159,40.481-40.476,40.481c-22.322,0-40.481-18.163-40.481-40.481v-185.01h80.957V432.135z
					 M472.615,431.087c0,22.894-18.159,41.529-40.481,41.529H104.561c9.766-10.701,15.78-24.883,15.78-40.481V237.279v-9.846V19.692
					h352.274V431.087z" />
			</g>
		</g>
		<g>
			<g>
				<path d="M158.413,61.567v217.394h145.505V61.567H158.413z M284.226,259.269h-106.12V81.26h106.12V259.269z" />
			</g>
		</g>
		<g>
			<g>
				<rect x="333.076" y="90.88" width="108.308" height="19.692" />
			</g>
		</g>
		<g>
			<g>
				<rect x="333.076" y="151.483" width="108.308" height="19.692" />
			</g>
		</g>
		<g>
			<g>
				<rect x="333.076" y="212.076" width="108.308" height="19.692" />
			</g>
		</g>
		<g>
			<g>
				<rect x="153.167" y="338.58" width="288.197" height="19.692" />
			</g>
		</g>
		<g>
			<g>
				<rect x="153.167" y="405.563" width="288.197" height="19.692" />
			</g>
		</g>
	</symbol>

</svg>